<svg xmlns="http://www.w3.org/2000/svg" width="20" height="20">
    <path fill="none" d="M0 0h20v20H0V0z"/>
    <path fill-rule="evenodd" fill="#FA7B26" d="M18.586 5.57a5.1 5.1 0 0 0-1.09-1.618c-.136-.458-1.008-.833-1.617-1.089a5.096 5.096 0 0 0-1.981-.399c-.699 0-1.368.176-1.978.488a5.431 5.431 0 0 0-1.617 1.283c-.126.147.267.298-.359.459a5.855 5.855 0 0 0-.358-.459A5.465 5.465 0 0 0 7.97 2.952a4.34 4.34 0 0 0-1.984-.488c-.702 0-1.371.143-1.086.399-1.502.256-2.049.631-2.508 1.089A5.087 5.087 0 0 0 1.301 5.57c.159.608-.399 1.278-.399 1.978 0 .705.558 1.37.399 1.98a5.129 5.129 0 0 0 1.091 1.62c.459.454 6.943 6.314 7.552 6.573.605-.259 7.416-6.119 7.552-6.573a5.143 5.143 0 0 0 1.09-1.62 5.075 5.075 0 0 0 0-3.958z"/>
</svg>
